<svg enable-background="new 0 0 32 32" viewBox="0 0 32 32" xmlns="http://www.w3.org/2000/svg"><path d="m26 31.36c-1.302 0-2.36-1.059-2.36-2.36s1.059-2.36 2.36-2.36 2.36 1.059 2.36 2.36-1.058 2.36-2.36 2.36zm0-4c-.904 0-1.64.735-1.64 1.64s.735 1.64 1.64 1.64 1.64-.735 1.64-1.64-.736-1.64-1.64-1.64zm-13.5 4c-1.301 0-2.36-1.059-2.36-2.36s1.059-2.36 2.36-2.36 2.36 1.059 2.36 2.36-1.059 2.36-2.36 2.36zm0-4c-.904 0-1.64.735-1.64 1.64s.736 1.64 1.64 1.64 1.64-.735 1.64-1.64-.736-1.64-1.64-1.64zm16.5-2h-16.681c-2.049 0-3.132-1.109-3.739-3.827l-4.863-20.173h-2.717v-.72h3c.166 0 .311.113.35.275l1.707 7.022.013-.003 2.002 8.296c.59 2.325 1.549 3.409 3.018 3.409h15.499c1.361 0 2.155-.789 2.425-2.412l1.57-10.867h-21.584v-.72h22c.104 0 .204.045.272.124s.099.184.084.287l-1.632 11.288c-.416 2.498-1.936 3.021-3.137 3.021h-15.498c-.908 0-1.666-.32-2.28-.971l.474 1.981c.539 2.415 1.333 3.269 3.037 3.269h16.68z"/><path d="m0 0h32v32h-32z" fill="none"/></svg>